<svg xmlns="http://www.w3.org/2000/svg" viewBox="0 0 380 270"><rect width="380" height="270" fill="#F2EBDD"/><ellipse cx="190.0" cy="252" rx="114.0" ry="7" fill="#2B2A26" opacity="0.07"/><line x1="139" y1="102" x2="132" y2="126" stroke="#C84E1E" stroke-width="10" stroke-linecap="round"/><line x1="132" y1="126" x2="136" y2="148" stroke="#C84E1E" stroke-width="8.5" stroke-linecap="round"/><circle cx="137" cy="153" r="5" fill="#C84E1E"/><line x1="141" y1="152" x2="132" y2="182" stroke="#C84E1E" stroke-width="12" stroke-linecap="round"/><line x1="132" y1="182" x2="127" y2="210" stroke="#C84E1E" stroke-width="10" stroke-linecap="round"/><line x1="127" y1="210" x2="141" y2="212" stroke="#C84E1E" stroke-width="8" stroke-linecap="round"/><line x1="141" y1="152" x2="159" y2="150" stroke="#FF6B35" stroke-width="16" stroke-linecap="round"/><line x1="152" y1="92" x2="150" y2="136" stroke="#FF6B35" stroke-width="13" stroke-linecap="round"/><line x1="139" y1="102" x2="167" y2="98" stroke="#FF6B35" stroke-width="16" stroke-linecap="round"/><line x1="159" y1="150" x2="170" y2="181" stroke="#FF6B35" stroke-width="12" stroke-linecap="round"/><line x1="170" y1="181" x2="175" y2="209" stroke="#FF6B35" stroke-width="10" stroke-linecap="round"/><line x1="175" y1="209" x2="189" y2="211" stroke="#FF6B35" stroke-width="8" stroke-linecap="round"/><line x1="167" y1="98" x2="193" y2="112" stroke="#FF6B35" stroke-width="10" stroke-linecap="round"/><line x1="193" y1="112" x2="216" y2="126" stroke="#FF6B35" stroke-width="8.5" stroke-linecap="round"/><circle cx="221" cy="129" r="5" fill="#FF6B35"/><line x1="155" y1="85" x2="152" y2="92" stroke="#FF6B35" stroke-width="8" stroke-linecap="round"/><circle cx="155" cy="74" r="13" fill="#FF6B35"/><path d="M 132 67 Q 155 55 178 67" stroke="#7B4B28" stroke-width="5" fill="none" stroke-linecap="round"/><path d="M 145 65 Q 147 50 155 48 Q 163 50 165 65 Z" fill="#7B4B28"/><path d="M 149 50 Q 155 42 161 50" stroke="#7B4B28" stroke-width="3.5" fill="none" stroke-linecap="round"/><line x1="226" y1="100" x2="233" y2="124" stroke="#0A5F55" stroke-width="10" stroke-linecap="round"/><line x1="233" y1="124" x2="228" y2="146" stroke="#0A5F55" stroke-width="8.5" stroke-linecap="round"/><circle cx="227" cy="151" r="5" fill="#0A5F55"/><line x1="222" y1="152" x2="229" y2="182" stroke="#0A5F55" stroke-width="12" stroke-linecap="round"/><line x1="229" y1="182" x2="233" y2="210" stroke="#0A5F55" stroke-width="10" stroke-linecap="round"/><line x1="233" y1="210" x2="219" y2="212" stroke="#0A5F55" stroke-width="8" stroke-linecap="round"/><line x1="204" y1="150" x2="222" y2="152" stroke="#0F8A7D" stroke-width="16" stroke-linecap="round"/><line x1="212" y1="90" x2="214" y2="134" stroke="#0F8A7D" stroke-width="13" stroke-linecap="round"/><line x1="198" y1="96" x2="226" y2="100" stroke="#0F8A7D" stroke-width="16" stroke-linecap="round"/><line x1="204" y1="150" x2="208" y2="182" stroke="#0F8A7D" stroke-width="12" stroke-linecap="round"/><line x1="208" y1="182" x2="206" y2="210" stroke="#0F8A7D" stroke-width="10" stroke-linecap="round"/><line x1="206" y1="210" x2="192" y2="212" stroke="#0F8A7D" stroke-width="8" stroke-linecap="round"/><line x1="198" y1="96" x2="183" y2="89" stroke="#0F8A7D" stroke-width="10" stroke-linecap="round"/><line x1="183" y1="89" x2="170" y2="95" stroke="#0F8A7D" stroke-width="8.5" stroke-linecap="round"/><circle cx="166" cy="97" r="5" fill="#0F8A7D"/><line x1="209" y1="83" x2="212" y2="90" stroke="#0F8A7D" stroke-width="8" stroke-linecap="round"/><circle cx="209" cy="72" r="13" fill="#0F8A7D"/></svg>