<svg xmlns="http://www.w3.org/2000/svg" viewBox="0 0 380 270"><rect width="380" height="270" fill="#F2EBDD"/><ellipse cx="190.0" cy="252" rx="114.0" ry="7" fill="#2B2A26" opacity="0.07"/><line x1="102" y1="102" x2="92" y2="124" stroke="#C84E1E" stroke-width="10" stroke-linecap="round"/><line x1="92" y1="124" x2="88" y2="144" stroke="#C84E1E" stroke-width="8.5" stroke-linecap="round"/><circle cx="87" cy="149" r="5" fill="#C84E1E"/><line x1="95" y1="149" x2="93" y2="181" stroke="#C84E1E" stroke-width="12" stroke-linecap="round"/><line x1="93" y1="181" x2="92" y2="210" stroke="#C84E1E" stroke-width="10" stroke-linecap="round"/><line x1="92" y1="210" x2="106" y2="212" stroke="#C84E1E" stroke-width="8" stroke-linecap="round"/><line x1="95" y1="149" x2="123" y2="155" stroke="#FF6B35" stroke-width="16" stroke-linecap="round"/><line x1="116" y1="94" x2="109" y2="138" stroke="#FF6B35" stroke-width="13" stroke-linecap="round"/><line x1="102" y1="102" x2="130" y2="102" stroke="#FF6B35" stroke-width="16" stroke-linecap="round"/><line x1="123" y1="155" x2="134" y2="181" stroke="#FF6B35" stroke-width="12" stroke-linecap="round"/><line x1="134" y1="181" x2="142" y2="208" stroke="#FF6B35" stroke-width="10" stroke-linecap="round"/><line x1="142" y1="208" x2="155" y2="211" stroke="#FF6B35" stroke-width="8" stroke-linecap="round"/><line x1="130" y1="102" x2="152" y2="118" stroke="#FF6B35" stroke-width="10" stroke-linecap="round"/><line x1="152" y1="118" x2="170" y2="127" stroke="#FF6B35" stroke-width="8.5" stroke-linecap="round"/><circle cx="174" cy="129" r="5" fill="#FF6B35"/><line x1="118" y1="87" x2="116" y2="94" stroke="#FF6B35" stroke-width="8" stroke-linecap="round"/><circle cx="118" cy="76" r="13" fill="#FF6B35"/><path d="M 95 69 Q 118 57 141 69" stroke="#7B4B28" stroke-width="5" fill="none" stroke-linecap="round"/><path d="M 108 67 Q 110 52 118 50 Q 126 52 128 67 Z" fill="#7B4B28"/><path d="M 112 52 Q 118 44 124 52" stroke="#7B4B28" stroke-width="3.5" fill="none" stroke-linecap="round"/><line x1="258" y1="102" x2="268" y2="124" stroke="#0A5F55" stroke-width="10" stroke-linecap="round"/><line x1="268" y1="124" x2="272" y2="144" stroke="#0A5F55" stroke-width="8.5" stroke-linecap="round"/><circle cx="273" cy="149" r="5" fill="#0A5F55"/><line x1="222" y1="149" x2="220" y2="181" stroke="#0A5F55" stroke-width="12" stroke-linecap="round"/><line x1="220" y1="181" x2="219" y2="210" stroke="#0A5F55" stroke-width="10" stroke-linecap="round"/><line x1="219" y1="210" x2="205" y2="212" stroke="#0A5F55" stroke-width="8" stroke-linecap="round"/><line x1="222" y1="149" x2="250" y2="155" stroke="#0F8A7D" stroke-width="16" stroke-linecap="round"/><line x1="244" y1="94" x2="236" y2="138" stroke="#0F8A7D" stroke-width="13" stroke-linecap="round"/><line x1="230" y1="102" x2="258" y2="102" stroke="#0F8A7D" stroke-width="16" stroke-linecap="round"/><line x1="250" y1="155" x2="260" y2="182" stroke="#0F8A7D" stroke-width="12" stroke-linecap="round"/><line x1="260" y1="182" x2="266" y2="208" stroke="#0F8A7D" stroke-width="10" stroke-linecap="round"/><line x1="266" y1="208" x2="252" y2="211" stroke="#0F8A7D" stroke-width="8" stroke-linecap="round"/><line x1="230" y1="102" x2="206" y2="118" stroke="#0F8A7D" stroke-width="10" stroke-linecap="round"/><line x1="206" y1="118" x2="180" y2="127" stroke="#0F8A7D" stroke-width="8.5" stroke-linecap="round"/><circle cx="177" cy="129" r="5" fill="#0F8A7D"/><line x1="242" y1="87" x2="244" y2="94" stroke="#0F8A7D" stroke-width="8" stroke-linecap="round"/><circle cx="242" cy="76" r="13" fill="#0F8A7D"/></svg>